<svg xmlns="http://www.w3.org/2000/svg" width="736" height="414" viewBox="0 0 736 414">
<g>
<path d="M 335.37 391.49 C333.54,393.31 328.10,393.50 327.53,391.75 C327.31,391.06 327.13,389.15 327.13,387.50 C327.12,385.85 327.07,382.95 327.00,381.05 C326.86,377.20 329.85,374.06 333.67,374.02 C338.04,373.98 339.35,387.51 335.37,391.49 Z" fill="rgb(254,255,254)"/>
<path d="M 0.00 207.00 L 0.00 0.00 L 368.00 0.00 L 736.00 0.00 L 736.00 207.00 L 736.00 414.00 L 368.00 414.00 L 0.00 414.00 L 0.00 207.00 ZM 335.37 391.49 C339.35,387.51 338.04,373.98 333.67,374.02 C329.85,374.06 326.86,377.20 327.00,381.05 C327.07,382.95 327.12,385.85 327.13,387.50 C327.13,389.15 327.31,391.06 327.53,391.75 C328.10,393.50 333.54,393.31 335.37,391.49 Z" fill="rgb(254,254,254)"/>
</g>
</svg>